<svg width="34" height="40" viewBox="0 0 34 40" fill="none" xmlns="http://www.w3.org/2000/svg">
<ellipse cx="16.5" cy="18" rx="9.5" ry="12" fill="white"/>
<path d="M16.5517 18.295C13.8 18.295 8.27586 19.657 8.27586 22.3606V22.6858C10.2828 24.9625 13.2414 26.4261 16.5517 26.4261C19.8621 26.4261 22.8207 24.9625 24.8276 22.6858V22.3606C24.8276 19.657 19.3034 18.295 16.5517 18.295ZM16.5517 16.2622C18.8276 16.2622 20.6897 14.4327 20.6897 12.1967C20.6897 9.96062 18.8276 8.13111 16.5517 8.13111C14.2759 8.13111 12.4138 9.96062 12.4138 12.1967C12.4138 14.4327 14.2759 16.2622 16.5517 16.2622ZM16.5517 0C25.2414 0 33.1035 6.54555 33.1035 16.6688C33.1035 23.133 28.0345 30.7356 17.9172 39.4969C17.131 40.1677 15.9517 40.1677 15.1655 39.4969C5.06897 30.7356 0 23.133 0 16.6688C0 6.54555 7.86207 0 16.5517 0Z" fill="white"/>
<path d="M16.778 18.5299C14.4473 18.5299 9.76837 19.704 9.76837 22.0346V22.315C11.4682 24.2777 13.9741 25.5394 16.778 25.5394C19.5818 25.5394 22.0877 24.2777 23.7875 22.315V22.0346C23.7875 19.704 19.1086 18.5299 16.778 18.5299ZM16.778 16.7775C18.7056 16.7775 20.2827 15.2003 20.2827 13.2727C20.2827 11.345 18.7056 9.76788 16.778 9.76788C14.8503 9.76788 13.2732 11.345 13.2732 13.2727C13.2732 15.2003 14.8503 16.7775 16.778 16.7775ZM16.778 2.7583C24.138 2.7583 30.7971 8.40101 30.7971 17.1279C30.7971 22.7006 26.5037 29.2545 17.9345 36.8073C17.2686 37.3856 16.2698 37.3856 15.6038 36.8073C7.05216 29.2545 2.75879 22.7006 2.75879 17.1279C2.75879 8.40101 9.41789 2.7583 16.778 2.7583Z" fill="#0C84F3"/>
</svg>
