<svg width="34" height="34" viewBox="0 0 34 34" fill="none" xmlns="http://www.w3.org/2000/svg">
<g clip-path="url(#clip0_481_3117)">
<path d="M9.54592 18.0314L17.6777 9.89965C19.2404 8.33694 21.7718 8.33694 23.3345 9.89965C24.8972 11.4624 24.8972 13.9938 23.3345 15.5565L14.4957 24.3953C13.5199 25.3711 11.9359 25.3711 10.9601 24.3953C9.98433 23.4195 9.98433 21.8356 10.9601 20.8598L18.3848 13.4352C18.7737 13.0463 19.4101 13.0463 19.799 13.4352C20.1879 13.8241 20.1879 14.4605 19.799 14.8494L13.0815 21.5669L14.1421 22.6276L20.8596 15.9101C21.8354 14.9342 21.8354 13.3503 20.8596 12.3745C19.8838 11.3987 18.2999 11.3987 17.3241 12.3745L9.89948 19.7991C8.33677 21.3618 8.33677 23.8933 9.89948 25.456C11.4622 27.0187 13.9936 27.0187 15.5563 25.456L24.3952 16.6172C26.5448 14.4676 26.5448 10.9886 24.3952 8.83899C22.2456 6.68938 18.7666 6.68938 16.617 8.83899L8.48526 16.9707L9.54592 18.0314Z" fill="#727272"/>
</g>
<defs>
<clipPath id="clip0_481_3117">
<rect width="24" height="24" fill="white" transform="translate(16.9706 33.9412) rotate(-135)"/>
</clipPath>
</defs>
</svg>
