<svg width="25" height="24" viewBox="0 0 25 24" fill="none" xmlns="http://www.w3.org/2000/svg">
<path d="M15.2912 3C16.2612 3.00999 17.0512 3.50943 17.5112 4.40844C17.6299 4.64567 17.7955 4.99216 17.969 5.35767L18.1783 5.79964L18.2812 6.01665L18.3812 6.2364C18.4212 6.30633 18.4912 6.35627 18.5812 6.35627C20.9812 6.35627 22.9412 8.3141 22.9412 10.7114V16.6448C22.9412 19.0422 20.9812 21 18.5812 21H7.30116C4.89116 21 2.94116 19.0422 2.94116 16.6448V10.7114C2.94116 8.3141 4.89116 6.35627 7.30116 6.35627C7.38116 6.35627 7.46116 6.31632 7.49116 6.2364L7.55116 6.11654C7.83116 5.52719 8.17116 4.80799 8.37116 4.40844C8.83116 3.50943 9.61116 3.00999 10.5812 3H15.2912ZM12.9412 9.40289C11.8912 9.40289 10.9012 9.81243 10.1512 10.5616C9.41116 11.3108 9.00116 12.2897 9.01116 13.3285C9.01116 14.3774 9.42116 15.3563 10.1612 16.1054C10.9112 16.8446 11.8912 17.2542 12.9412 17.2542C14.0212 17.2542 15.0012 16.8147 15.7112 16.1054C16.4212 15.3962 16.8612 14.4173 16.8712 13.3285C16.8712 12.2897 16.4612 11.3008 15.7212 10.5516C14.9812 9.81243 13.9912 9.40289 12.9412 9.40289ZM12.9412 10.9012C13.5912 10.9012 14.2012 11.1509 14.6612 11.6104C15.1212 12.0699 15.3712 12.6792 15.3712 13.3285C15.3612 14.667 14.2812 15.7558 12.9412 15.7558C12.2912 15.7558 11.6812 15.5061 11.2212 15.0466C10.7612 14.5871 10.5112 13.9778 10.5112 13.3285V13.3185C10.5012 12.6892 10.7512 12.0799 11.2112 11.6204C11.6812 11.1509 12.2912 10.9012 12.9412 10.9012ZM18.5512 9.16315C18.0512 9.16315 17.6512 9.5727 17.6512 10.0721C17.6512 10.5716 18.0512 10.9711 18.5512 10.9711C19.0512 10.9711 19.4612 10.5716 19.4612 10.0721C19.4612 9.5727 19.0512 9.16315 18.5512 9.16315Z" fill="#727272"/>
</svg>
