<svg width="24" height="24" viewBox="0 0 24 24" fill="none" xmlns="http://www.w3.org/2000/svg">
<rect width="24" height="24" rx="10" fill="#0C84F3"/>
<path d="M11.5889 17.7781C8.56188 13.2526 8 12.7882 8 11.125C8 8.84682 9.79085 7 12 7C14.2091 7 16 8.84682 16 11.125C16 12.7882 15.4381 13.2526 12.4111 17.7781C12.2124 18.074 11.7875 18.074 11.5889 17.7781ZM12 12.8437C12.9205 12.8437 13.6667 12.0742 13.6667 11.125C13.6667 10.1758 12.9205 9.40625 12 9.40625C11.0795 9.40625 10.3333 10.1758 10.3333 11.125C10.3333 12.0742 11.0795 12.8437 12 12.8437Z" fill="white"/>
</svg>
