<svg width="16" height="16" viewBox="0 0 16 16" fill="none" xmlns="http://www.w3.org/2000/svg">
<path opacity="0.4" d="M1.33398 7.38574C1.36732 8.94441 1.46065 11.6104 1.47398 11.9044C1.52132 12.5331 1.76198 13.1684 2.13665 13.6164C2.65798 14.2451 3.29998 14.5257 4.19532 14.5257C5.43265 14.5324 6.79665 14.5324 8.12132 14.5324C9.45132 14.5324 10.742 14.5324 11.832 14.5257C12.7147 14.5257 13.3767 14.2377 13.8913 13.6164C14.266 13.1684 14.5067 12.5264 14.5407 11.9044C14.554 11.6571 14.6207 8.76308 14.6607 7.38574H1.33398Z" fill="#FD8312"/>
<path d="M7.49805 10.2559V11.1185C7.49805 11.3945 7.72205 11.6185 7.99805 11.6185C8.27405 11.6185 8.49805 11.3945 8.49805 11.1185V10.2559C8.49805 9.97986 8.27405 9.75586 7.99805 9.75586C7.72205 9.75586 7.49805 9.97986 7.49805 10.2559Z" fill="#FD8312"/>
<path d="M8.85798 1.3335C9.85865 1.3335 10.6793 2.08616 10.8047 3.05416H12.1227C13.522 3.05416 14.6607 4.19283 14.6607 5.59283V7.90349C14.6607 8.07149 14.576 8.22816 14.4367 8.32083C13.062 9.23083 11.43 9.83683 9.71798 10.0735C9.69465 10.0768 9.67198 10.0782 9.64932 10.0782C9.42332 10.0782 9.22132 9.9255 9.16465 9.7015C9.02998 9.17083 8.54798 8.7995 7.99398 8.7995C7.43265 8.7995 6.95598 9.16283 6.80798 9.70416C6.74132 9.94616 6.50865 10.1008 6.25665 10.0675C4.55598 9.83016 2.93065 9.22683 1.55865 8.32083C1.41798 8.22883 1.33398 8.07149 1.33398 7.90349V5.59283C1.33398 4.19283 2.47532 3.05416 3.87865 3.05416H5.18998C5.31532 2.08616 6.13532 1.3335 7.13665 1.3335H8.85798ZM8.85798 2.3335H7.13665C6.68798 2.3335 6.31332 2.64016 6.20132 3.05416H9.79265C9.68065 2.64016 9.30598 2.3335 8.85798 2.3335Z" fill="#00BABA"/>
</svg>
