<svg width="64" height="64" viewBox="0 0 64 64" fill="none" xmlns="http://www.w3.org/2000/svg">
<mask id="mask0_445_4458" style="mask-type:alpha" maskUnits="userSpaceOnUse" x="0" y="0" width="64" height="64">
<circle cx="32" cy="32" r="32" fill="#0BCAD4"/>
</mask>
<g mask="url(#mask0_445_4458)">
<ellipse cx="23.652" cy="46.6084" rx="12.5217" ry="3.47826" fill="#FD8312" fill-opacity="0.5"/>
<path d="M29.5174 26.3425L29.1832 26.6768L27.5186 34.4396L24.0364 37.9217L25.8757 40.9069L36.266 31.415L29.5174 26.3425Z" fill="#D5E7FF"/>
<path d="M40.44 37.2655L35.8167 30.9661L25.8756 40.9072L28.8608 42.7465L32.3429 39.2643L40.1057 37.5997L40.44 37.2655Z" fill="#ACCEFF"/>
<path d="M26.8977 40.783L24.0363 37.9216L20.4774 41.4805C19.1452 42.8127 19.1452 44.9726 20.4774 46.3048L26.8977 40.783Z" fill="#FD8312"/>
<path d="M28.8611 42.7462L26.4488 40.334L20.4778 46.305C21.81 47.6373 23.9699 47.6373 25.3022 46.305L28.8611 42.7462Z" fill="#D46600"/>
<path d="M58.955 7.82705C55.9388 4.81091 51.0486 4.81091 48.0324 7.82705L46.5343 9.32509L51.5116 16.1688L58.955 7.82705Z" fill="#D5E7FF"/>
<path d="M58.9556 7.82739L51.134 15.649L57.4576 20.248L58.9556 18.75C61.9718 15.7338 61.9718 10.8436 58.9556 7.82739Z" fill="#ACCEFF"/>
<path d="M29.5148 26.3418L46.5295 9.32706L52.4391 15.2366L35.4243 32.2514L29.5148 26.3418Z" fill="#EAF1FF"/>
<path d="M34.9755 31.8035L51.9902 14.7887L57.4507 20.2492L40.4359 37.264L34.9755 31.8035Z" fill="#D5E7FF"/>
<path d="M35.3562 26.9832L45.7125 16.6268L48.2114 19.1258L37.8551 29.4821L35.3562 26.9832Z" fill="#D5E7FF"/>
<path d="M37.5759 29.2026L47.9322 18.8463L50.1519 21.066L39.7955 31.4223L37.5759 29.2026Z" fill="#ACCEFF"/>
<path d="M49.522 12.3128C48.1558 13.679 48.1558 15.8942 49.522 17.2605L52.445 15.2359L54.4697 12.3128C53.1034 10.9465 50.8883 10.9465 49.522 12.3128Z" fill="#FD8312"/>
<path d="M54.4701 12.313L49.5225 17.2606C50.8887 18.6268 53.1039 18.6268 54.4701 17.2606C55.8364 15.8943 55.8364 13.6792 54.4701 12.313Z" fill="#AB5300"/>
</g>
</svg>
