<svg width="36" height="36" viewBox="0 0 36 36" fill="none" xmlns="http://www.w3.org/2000/svg">
<circle cx="18" cy="18" r="18" fill="#FF486A"/>
<path d="M18.9524 10.0188C19.1583 10.0188 19.3167 10.1868 19.3167 10.3868V12.9628C19.3167 14.4268 20.5128 15.6268 21.9623 15.6348C22.5643 15.6348 23.0395 15.6428 23.4039 15.6428L23.5388 15.6422C23.7823 15.6404 24.1101 15.6348 24.394 15.6348C24.592 15.6348 24.7504 15.7948 24.7504 15.9948V22.4268C24.7504 24.4108 23.1583 26.0188 21.194 26.0188H14.889C12.8296 26.0188 11.1504 24.3308 11.1504 22.2508V13.6268C11.1504 11.6428 12.7504 10.0188 14.7227 10.0188H18.9524ZM19.7999 20.3388H15.491C15.1662 20.3388 14.8969 20.6028 14.8969 20.9308C14.8969 21.2588 15.1662 21.5308 15.491 21.5308H19.7999C20.1246 21.5308 20.394 21.2588 20.394 20.9308C20.394 20.6028 20.1246 20.3388 19.7999 20.3388ZM18.1682 16.3388H15.491C15.1662 16.3388 14.8969 16.6108 14.8969 16.9388C14.8969 17.2668 15.1662 17.5308 15.491 17.5308H18.1682C18.493 17.5308 18.7623 17.2668 18.7623 16.9388C18.7623 16.6108 18.493 16.3388 18.1682 16.3388ZM20.4709 10.7436C20.4709 10.3988 20.8852 10.2276 21.122 10.4764C21.9783 11.3756 23.4745 12.9476 24.3109 13.826C24.5422 14.0684 24.3727 14.4708 24.0393 14.4716C23.3882 14.474 22.6206 14.4716 22.0686 14.466C21.1925 14.466 20.4709 13.7372 20.4709 12.8524V10.7436Z" fill="white"/>
</svg>
