<svg width="64" height="64" viewBox="0 0 64 64" fill="none" xmlns="http://www.w3.org/2000/svg">
<circle cx="32" cy="32" r="32" fill="#FFE5E9"/>
<g clip-path="url(#clip0_445_4539)">
<path d="M38.3991 9.75716C38.543 9.66064 38.7377 9.69885 38.8342 9.84242L39.1931 10.3766C39.2924 10.5245 39.2491 10.7263 39.095 10.8197C38.9507 10.9073 38.7619 10.8591 38.6678 10.7191L38.6583 10.7047L38.1067 11.309C38.09 11.3271 38.0865 11.3538 38.0977 11.3759C38.2118 11.6029 38.3 11.8397 38.362 12.0816C38.3683 12.1061 38.3893 12.1242 38.4145 12.1264L38.9738 12.1744C38.9762 12.0753 39.0174 11.984 39.0844 11.9169C39.1409 11.8605 39.2157 11.8213 39.3011 11.81C39.5077 11.7825 39.6975 11.9278 39.7251 12.1345L39.7478 12.3054C39.7746 12.5062 39.643 12.6988 39.4436 12.7354C39.2719 12.7671 39.1092 12.678 39.0367 12.5318L38.5066 12.7383C38.4827 12.7477 38.4677 12.7712 38.469 12.7967C38.4856 13.1544 38.4483 13.514 38.357 13.8624C38.3508 13.8864 38.3598 13.9116 38.3799 13.926L39.0489 14.4066L39.0978 14.2924C39.1681 14.1286 39.3612 14.0553 39.5234 14.134C39.6752 14.2077 39.7373 14.3924 39.6707 14.5473L39.4208 15.1309C39.3506 15.2946 39.1576 15.3678 38.9953 15.2891C38.8435 15.2154 38.7815 15.0308 38.8479 14.8757L38.8548 14.86L38.0475 14.7251C38.0232 14.721 37.9991 14.7325 37.9865 14.7539C37.8377 15.0069 37.6549 15.2455 37.4376 15.4628C37.2657 15.6347 37.0805 15.7849 36.8853 15.9139C36.8648 15.9276 36.8545 15.9524 36.8598 15.9765L37.0511 16.8404L37.0672 16.8329C37.2166 16.7633 37.3879 16.7988 37.4979 16.9089C37.5287 16.9397 37.5547 16.9762 37.5741 17.0178C37.7319 17.1756 37.6955 17.3819 37.4931 17.476L36.9291 17.7386C36.7405 17.8266 36.5165 17.7469 36.4255 17.5604C36.3316 17.3684 36.4224 17.1333 36.6161 17.043L36.6291 17.0369L36.0792 16.3501C36.0638 16.3307 36.0382 16.3233 36.0145 16.3307C35.6176 16.4574 35.2027 16.5121 34.7901 16.495C34.7652 16.494 34.7422 16.5084 34.7327 16.5313L34.4351 17.2426C34.5988 17.2922 34.7019 17.4595 34.6662 17.632C34.629 17.812 34.4491 17.9255 34.2683 17.893L33.9531 17.8361C33.7769 17.8045 33.6488 17.6428 33.6699 17.4649C33.6925 17.2753 33.8654 17.1457 34.0499 17.1713L34.0037 16.4146C34.0021 16.3893 33.9847 16.368 33.9605 16.3611C33.5517 16.2441 33.16 16.0519 32.807 15.7847C32.7871 15.7697 32.7603 15.7683 32.7395 15.7814L32.0407 16.218L32.1067 16.2851C32.1727 16.3523 32.2056 16.44 32.205 16.5275C32.2048 16.615 32.1711 16.7023 32.1044 16.769C31.9718 16.9016 31.7562 16.9007 31.6249 16.7669L31.2162 16.3507C31.0824 16.2147 31.0803 15.9896 31.2186 15.8584C31.3528 15.7311 31.5646 15.7342 31.6951 15.8661L32.1265 15.1704C32.1396 15.1493 32.1382 15.1225 32.1231 15.1028C31.8393 14.7307 31.6395 14.315 31.5233 13.8814C31.5167 13.8572 31.4959 13.8395 31.4707 13.8374L30.8863 13.7904L30.8937 13.8446C30.9171 14.0129 30.7955 14.1678 30.6244 14.1835C30.4638 14.1981 30.3223 14.0779 30.3002 13.9183L30.2426 13.5026C30.2293 13.4061 30.2635 13.314 30.3275 13.25C30.3719 13.2056 30.4306 13.1748 30.4976 13.1654C30.653 13.1438 30.7967 13.2458 30.8304 13.3964L31.3687 13.1831C31.3924 13.1737 31.4072 13.1503 31.4062 13.1248C31.3891 12.753 31.4306 12.379 31.5305 12.0176C31.537 11.9938 31.5284 11.9684 31.5086 11.9537L30.8459 11.4641L30.7955 11.5779C30.7232 11.7406 30.529 11.8113 30.368 11.7305C30.2171 11.6548 30.1576 11.4693 30.2262 11.3152L30.4839 10.7352C30.5564 10.5724 30.7503 10.5017 30.9114 10.5826C31.0622 10.6582 31.1218 10.8435 31.0532 10.9979L31.0462 11.0135L31.8512 11.1592C31.8756 11.1636 31.8998 11.1525 31.9126 11.1314C32.0571 10.8932 32.232 10.6686 32.4377 10.4629L32.438 10.4626C32.456 10.4446 32.4611 10.4175 32.4501 10.3946L32.2539 9.98C32.0878 10.0668 31.8788 10.0263 31.7589 9.87421C31.6232 9.7017 31.6613 9.44465 31.8348 9.30992L32.0036 9.17876C32.1757 9.04517 32.4272 9.06741 32.5637 9.23736C32.67 9.3698 32.6771 9.54858 32.5967 9.68602L32.9656 9.97914C32.9855 9.99497 33.0133 9.99625 33.0348 9.98242C33.344 9.78468 33.6774 9.63983 34.0217 9.54787C34.0456 9.54131 34.0631 9.52121 34.0656 9.49655L34.1508 8.67706L34.0275 8.69117C33.8503 8.71156 33.691 8.58025 33.6789 8.40047C33.6674 8.2321 33.797 8.08654 33.9646 8.06743L34.5951 7.99501C34.7721 7.97448 34.9315 8.10593 34.9437 8.2857C34.9551 8.45394 34.8255 8.5995 34.6579 8.61875L34.6408 8.62074L34.9245 9.38891C34.933 9.41215 34.9551 9.4274 34.9799 9.42769C35.325 9.43182 35.6698 9.48628 36.0019 9.59093C36.026 9.59848 36.0523 9.59021 36.0675 9.57011L36.3629 9.17862C36.1716 9.08823 36.0903 8.85727 36.1871 8.66608C36.2794 8.48373 36.5036 8.41202 36.6896 8.49699L36.9808 8.63001C37.1649 8.71427 37.2586 8.92769 37.1844 9.11589C37.1133 9.29624 36.9221 9.38876 36.743 9.34485L36.6513 9.82317C36.6465 9.84826 36.6583 9.8735 36.6806 9.88605C36.9516 10.0399 37.2065 10.2321 37.4375 10.463C37.4761 10.5017 37.5136 10.5409 37.5498 10.5808C37.5666 10.599 37.5926 10.6053 37.6155 10.5963L38.3833 10.2954L38.3138 10.1923C38.2173 10.0484 38.2555 9.85368 38.3991 9.75716Z" fill="#F07281"/>
<path d="M35.0874 10.9416C35.2824 10.7467 35.3083 10.4565 35.1453 10.2936C34.9823 10.1306 34.6922 10.1565 34.4972 10.3514C34.3023 10.5463 34.2764 10.8365 34.4394 10.9994C34.6024 11.1624 34.8925 11.1365 35.0874 10.9416Z" fill="#EE6161"/>
<path d="M35.7422 14.1438C35.9552 13.9308 35.9552 13.5853 35.7422 13.3723C35.5291 13.1592 35.1837 13.1592 34.9706 13.3723C34.7576 13.5853 34.7576 13.9308 34.9706 14.1438C35.1837 14.3569 35.5291 14.3569 35.7422 14.1438Z" fill="#EE6161"/>
<path d="M36.9351 12.3297C37.0876 12.1771 37.0876 11.9298 36.9351 11.7773C36.7825 11.6247 36.5352 11.6247 36.3827 11.7773C36.2301 11.9298 36.2301 12.1771 36.3827 12.3297C36.5352 12.4822 36.7825 12.4822 36.9351 12.3297Z" fill="#F9B1B1"/>
<path d="M37.2555 14.6899C37.4038 14.5416 37.4038 14.3012 37.2555 14.1528C37.1072 14.0045 36.8667 14.0045 36.7184 14.1528C36.5701 14.3012 36.5701 14.5416 36.7184 14.6899C36.8667 14.8382 37.1071 14.8382 37.2555 14.6899Z" fill="#F9B1B1"/>
<path d="M34.9439 15.7392C35.0984 15.5847 35.0984 15.3342 34.9439 15.1797C34.7894 15.0252 34.5389 15.0252 34.3844 15.1797C34.2299 15.3342 34.2299 15.5847 34.3844 15.7392C34.5389 15.8937 34.7894 15.8937 34.9439 15.7392Z" fill="#EE6161"/>
<path d="M35.5032 12.1579L35.4087 12.2524C35.3496 12.3115 35.2539 12.3115 35.1948 12.2524C35.1358 12.1934 35.1358 12.0976 35.1948 12.0386L35.2893 11.9441C35.3484 11.885 35.4441 11.885 35.5032 11.9441C35.5622 12.0031 35.5623 12.0988 35.5032 12.1579Z" fill="#F9B1B1"/>
<path d="M36.1131 15.2862L36.016 15.3833C35.9569 15.4424 35.8612 15.4423 35.8021 15.3833C35.7431 15.3242 35.7431 15.2285 35.8021 15.1694L35.8992 15.0723C35.9583 15.0133 36.054 15.0133 36.1131 15.0723C36.1721 15.1314 36.1722 15.2271 36.1131 15.2862Z" fill="#F9B1B1"/>
<path d="M33.5585 14.7263L33.4649 14.8198C33.4059 14.8789 33.3101 14.8789 33.2511 14.8198C33.192 14.7608 33.192 14.665 33.2511 14.606L33.3446 14.5124C33.4037 14.4533 33.4994 14.4534 33.5585 14.5124C33.6176 14.5715 33.6176 14.6672 33.5585 14.7263Z" fill="#EE6161"/>
<path d="M33.5868 10.9565L33.4566 11.0867C33.3976 11.1457 33.3018 11.1457 33.2428 11.0867C33.1837 11.0276 33.1837 10.9319 33.2428 10.8728L33.373 10.7426C33.432 10.6836 33.5278 10.6836 33.5868 10.7426C33.6459 10.8017 33.6459 10.8974 33.5868 10.9565Z" fill="#F9B1B1"/>
<path d="M37.5218 13.1812L37.378 13.3249C37.319 13.384 37.2232 13.384 37.1642 13.3249C37.1051 13.2659 37.1051 13.1702 37.1642 13.1111L37.3079 12.9673C37.367 12.9083 37.4627 12.9083 37.5218 12.9673C37.5808 13.0264 37.5808 13.1221 37.5218 13.1812Z" fill="#EE6161"/>
<path d="M34.0361 12.9574C34.1037 12.3863 33.7718 11.8777 33.2949 11.8213C32.818 11.7649 32.3767 12.1821 32.3091 12.7532C32.2416 13.3242 32.5735 13.8328 33.0504 13.8892C33.5273 13.9456 33.9686 13.5284 34.0361 12.9574Z" fill="#EE6161"/>
</g>
<g clip-path="url(#clip1_445_4539)">
<path d="M54.2401 43.2519C54.75 43.3523 55.0821 43.8464 54.9823 44.3557L54.6103 46.2502C54.5074 46.7746 53.9873 47.1109 53.4622 46.9821C52.9705 46.8617 52.6723 46.3591 52.7696 45.8625L52.7799 45.8117L50.3278 45.9236C50.254 45.9266 50.1899 45.9756 50.1669 46.0464C49.9274 46.7698 49.6122 47.4593 49.2306 48.1041C49.1918 48.1695 49.1979 48.2523 49.2469 48.3104L50.3314 49.5988C50.5467 49.3937 50.828 49.2873 51.1123 49.2873C51.3518 49.2873 51.5938 49.3629 51.7988 49.5201C52.2954 49.9 52.3898 50.6107 52.0099 51.1079L51.6954 51.5186C51.3264 52.0013 50.6387 52.1307 50.1379 51.7854C49.7066 51.4884 49.5505 50.9543 49.7066 50.4903L48.1442 49.8038C48.0734 49.773 47.9918 49.7911 47.9404 49.848C47.2169 50.6422 46.375 51.3257 45.4422 51.8713C45.3781 51.9088 45.3437 51.9813 45.3558 52.0545L45.7556 54.4934L46.1016 54.3549C46.5982 54.1565 47.1631 54.4105 47.3403 54.9216C47.5061 55.4001 47.246 55.9233 46.776 56.1108L45.008 56.8185C44.512 57.0169 43.947 56.7628 43.7698 56.2517C43.604 55.7733 43.8641 55.2501 44.3341 55.0619L44.3819 55.0432L42.9556 53.0447C42.9127 52.9842 42.8371 52.9576 42.7651 52.9764C41.9128 53.1971 41.0188 53.3157 40.097 53.3157C39.3675 53.3157 38.6562 53.2413 37.9685 53.101C37.8959 53.0864 37.8215 53.1173 37.7816 53.1796L36.3547 55.4182L36.4049 55.4364C36.8694 55.6057 37.1573 56.0443 37.1573 56.5112C37.1573 56.6419 37.135 56.7743 37.0878 56.9038C37.0878 57.5734 36.573 57.9339 35.944 57.704L34.1904 57.0647C33.6037 56.8512 33.2977 56.207 33.5003 55.6184C33.7084 55.0117 34.3997 54.7057 35.0022 54.9252L35.0427 54.9398L35.333 52.3164C35.3415 52.2427 35.3028 52.1725 35.2369 52.138C34.1263 51.5646 33.1301 50.8006 32.2912 49.8891C32.2403 49.8341 32.1611 49.8159 32.0922 49.8443L29.9521 50.722C30.1941 51.1744 30.058 51.7479 29.6164 52.0382C29.1555 52.3412 28.5331 52.2003 28.2186 51.7479L27.6706 50.9585C27.3639 50.5176 27.4353 49.903 27.8575 49.5703C28.3075 49.2159 28.9492 49.3078 29.2862 49.7536L30.7935 48.0503C30.8437 47.9934 30.8522 47.9112 30.8153 47.8452C30.1965 46.7299 29.7731 45.4911 29.591 44.1755C29.5807 44.1017 29.5269 44.0418 29.4549 44.0255L27.0463 43.469L27.0439 43.7515C27.0415 44.034 26.9254 44.2898 26.7384 44.4743C26.5521 44.6594 26.2957 44.7731 26.0126 44.7731C25.4501 44.7731 24.9946 44.314 25 43.7515L25.0158 42.0016C25.0206 41.4294 25.4936 40.9473 26.0652 40.9624C26.6199 40.9769 27.0627 41.433 27.0596 41.9895L29.4507 41.4288C29.5233 41.4118 29.5771 41.352 29.5868 41.2782C29.7743 39.887 30.2322 38.581 30.9054 37.4149C30.9429 37.3495 30.9362 37.2679 30.8873 37.2098L29.7471 35.8706L29.6479 36.0013C29.3406 36.4077 28.7539 36.4785 28.3577 36.1489C27.9863 35.8392 27.9409 35.2839 28.2325 34.8986L28.9922 33.8945C29.1688 33.6616 29.4368 33.5388 29.7084 33.5388C29.8965 33.5388 30.0864 33.5981 30.2485 33.7203C30.6241 34.004 30.7124 34.5254 30.4644 34.9161L32.0589 35.6057C32.1291 35.6359 32.2101 35.6178 32.2621 35.5615C33.0146 34.7365 33.8959 34.0312 34.8746 33.4765C34.9387 33.4396 34.9744 33.3677 34.9635 33.2945L34.5963 30.8502L34.2479 30.9845C33.7495 31.1762 33.1876 30.9143 33.0176 30.4014C32.8579 29.9205 33.1253 29.4009 33.5977 29.2195L35.3748 28.536C35.8738 28.3442 36.4351 28.6055 36.6051 29.1191C36.7648 29.5993 36.498 30.1189 36.025 30.301L35.9772 30.3191L37.3757 32.3358C37.418 32.3969 37.493 32.4247 37.565 32.4071C38.3768 32.2081 39.2242 32.1029 40.097 32.1029H40.0982C40.1744 32.1029 40.2428 32.0563 40.2682 31.9843L40.7315 30.6887C40.195 30.5205 39.8375 29.9913 39.9059 29.4142C39.9839 28.7604 40.6099 28.2958 41.2638 28.3781L41.9001 28.4579C42.5485 28.5396 43.0349 29.1203 42.9641 29.7705C42.9084 30.2768 42.5443 30.6712 42.0822 30.7921L42.2431 32.1966C42.2516 32.2722 42.3078 32.3339 42.3828 32.3503C43.4583 32.5868 44.4726 32.9866 45.3981 33.5219C45.4628 33.5588 45.5427 33.5534 45.6001 33.5062L47.5194 31.9486L47.2278 31.717C46.8086 31.3843 46.7494 30.7679 47.105 30.3609C47.4377 29.9792 48.0214 29.9453 48.4176 30.2604L49.9086 31.4442C50.3278 31.7763 50.3871 32.3932 50.0314 32.8003C49.6987 33.1814 49.115 33.2152 48.7188 32.9007L48.6783 32.8686L47.6506 35.1C47.6192 35.1672 47.6337 35.2464 47.6857 35.2996C48.4091 36.0406 49.0249 36.8874 49.5076 37.8141C49.5427 37.8812 49.6159 37.9193 49.6909 37.909L51.148 37.7052C50.9339 37.1076 51.2514 36.4452 51.8623 36.245C52.4448 36.0539 53.0727 36.3775 53.2868 36.9521L53.6225 37.8522C53.8342 38.4214 53.5802 39.0728 53.0237 39.3148C52.4902 39.5464 51.8884 39.3371 51.6016 38.8641L50.3925 39.6843C50.329 39.7273 50.3006 39.8059 50.3211 39.8797C50.5697 40.781 50.7028 41.7294 50.7028 42.7093C50.7028 42.8732 50.6992 43.0359 50.6913 43.1974C50.6883 43.2718 50.73 43.3402 50.7978 43.3698L53.0648 44.36L53.1362 43.994C53.2366 43.4841 53.7308 43.1521 54.2401 43.2519Z" fill="#F07281"/>
<path d="M44.7025 38.7394C45.5295 38.7394 46.1999 38.1788 46.1999 37.4874C46.1999 36.7959 45.5295 36.2354 44.7025 36.2354C43.8755 36.2354 43.2051 36.7959 43.2051 37.4874C43.2051 38.1788 43.8755 38.7394 44.7025 38.7394Z" fill="#EE6161"/>
<path d="M39.2987 46.9211C40.2026 46.9211 40.9354 46.1884 40.9354 45.2844C40.9354 44.3805 40.2026 43.6477 39.2987 43.6477C38.3948 43.6477 37.662 44.3805 37.662 45.2844C37.662 46.1884 38.3948 46.9211 39.2987 46.9211Z" fill="#EE6161"/>
<path d="M45.6776 45.6035C46.3248 45.6035 46.8495 45.0788 46.8495 44.4316C46.8495 43.7844 46.3248 43.2598 45.6776 43.2598C45.0304 43.2598 44.5057 43.7844 44.5057 44.4316C44.5057 45.0788 45.0304 45.6035 45.6776 45.6035Z" fill="#F9B1B1"/>
<path d="M41.3497 51.2899C41.9789 51.2899 42.489 50.7798 42.489 50.1506C42.489 49.5213 41.9789 49.0112 41.3497 49.0112C40.7204 49.0112 40.2103 49.5213 40.2103 50.1506C40.2103 50.7798 40.7204 51.2899 41.3497 51.2899Z" fill="#F9B1B1"/>
<path d="M34.2206 48.612C34.8761 48.612 35.4074 48.0806 35.4074 47.4252C35.4074 46.7697 34.8761 46.2383 34.2206 46.2383C33.5651 46.2383 33.0337 46.7697 33.0337 47.4252C33.0337 48.0806 33.5651 48.612 34.2206 48.612Z" fill="#EE6161"/>
<path d="M43.0046 42.2013H42.6036C42.353 42.2013 42.1499 41.9981 42.1499 41.7476C42.1499 41.4971 42.353 41.2939 42.6036 41.2939H43.0046C43.2552 41.2939 43.4582 41.4971 43.4582 41.7476C43.4582 41.9981 43.2552 42.2013 43.0046 42.2013Z" fill="#F9B1B1"/>
<path d="M37.662 50.1312H37.2499C36.9993 50.1312 36.7963 49.9281 36.7963 49.6775C36.7963 49.427 36.9993 49.2239 37.2499 49.2239H37.662C37.9125 49.2239 38.1156 49.427 38.1156 49.6775C38.1156 49.9281 37.9125 50.1312 37.662 50.1312Z" fill="#F9B1B1"/>
<path d="M33.4304 43.5247H33.0335C32.7829 43.5247 32.5798 43.3216 32.5798 43.0711C32.5798 42.8205 32.7829 42.6174 33.0335 42.6174H33.4304C33.681 42.6174 33.8841 42.8205 33.8841 43.0711C33.8841 43.3216 33.681 43.5247 33.4304 43.5247Z" fill="#EE6161"/>
<path d="M41.4878 35.5877H40.9355C40.6849 35.5877 40.4818 35.3846 40.4818 35.1341C40.4818 34.8835 40.6849 34.6804 40.9355 34.6804H41.4878C41.7384 34.6804 41.9415 34.8835 41.9415 35.1341C41.9415 35.3846 41.7384 35.5877 41.4878 35.5877Z" fill="#F9B1B1"/>
<path d="M45.1156 48.6544H44.5057C44.2551 48.6544 44.052 48.4513 44.052 48.2007C44.052 47.9502 44.2551 47.7471 44.5057 47.7471H45.1156C45.3662 47.7471 45.5693 47.9502 45.5693 48.2007C45.5693 48.4513 45.3661 48.6544 45.1156 48.6544Z" fill="#EE6161"/>
<path d="M38.1963 40.785C39.5509 39.7169 39.9259 37.9339 39.0338 36.8026C38.1418 35.6714 36.3205 35.6202 34.966 36.6883C33.6114 37.7564 33.2365 39.5394 34.1285 40.6707C35.0205 41.8019 36.8418 41.8531 38.1963 40.785Z" fill="#EE6161"/>
</g>
<g clip-path="url(#clip2_445_4539)">
<path d="M28.4934 26.1917C28.8333 26.2586 29.0547 26.5881 28.9882 26.9276L28.7402 28.1906C28.6716 28.5402 28.3248 28.7644 27.9748 28.6785C27.647 28.5982 27.4482 28.2631 27.5131 27.9321L27.52 27.8982L25.8852 27.9728C25.836 27.9748 25.7933 28.0075 25.7779 28.0547C25.6182 28.537 25.4081 28.9967 25.1537 29.4265C25.1279 29.4701 25.1319 29.5253 25.1646 29.564L25.8876 30.4229C26.0312 30.2862 26.2187 30.2153 26.4082 30.2153C26.5679 30.2153 26.7292 30.2657 26.8659 30.3705C27.197 30.6238 27.2599 31.0976 27.0066 31.429L26.7969 31.7028C26.551 32.0246 26.0925 32.1109 25.7586 31.8807C25.4711 31.6827 25.367 31.3266 25.4711 31.0173L24.4295 30.5596C24.3823 30.5391 24.3279 30.5512 24.2936 30.5891C23.8113 31.1185 23.25 31.5742 22.6282 31.9379C22.5854 31.9629 22.5624 32.0113 22.5705 32.0601L22.837 33.686L23.0677 33.5937C23.3988 33.4614 23.7754 33.6308 23.8936 33.9715C24.004 34.2905 23.8306 34.6393 23.5173 34.7643L22.3386 35.2361C22.008 35.3684 21.6313 35.199 21.5132 34.8583C21.4027 34.5393 21.5761 34.1905 21.8894 34.0651L21.9213 34.0526L20.9704 32.7202C20.9418 32.6799 20.8914 32.6622 20.8434 32.6747C20.2752 32.8219 19.6792 32.9009 19.0647 32.9009C18.5784 32.9009 18.1041 32.8513 17.6456 32.7577C17.5973 32.7481 17.5477 32.7686 17.521 32.8102L16.5698 34.3026L16.6033 34.3147C16.9129 34.4276 17.1049 34.7199 17.1049 35.0312C17.1049 35.1183 17.09 35.2067 17.0585 35.293C17.0585 35.7393 16.7154 35.9797 16.296 35.8264L15.127 35.4002C14.7358 35.2579 14.5318 34.8284 14.6669 34.4361C14.8056 34.0316 15.2665 33.8276 15.6681 33.9739L15.6951 33.9836L15.8887 32.2347C15.8943 32.1855 15.8685 32.1388 15.8246 32.1158C15.0842 31.7335 14.4201 31.2242 13.8608 30.6165C13.8269 30.5798 13.7741 30.5677 13.7281 30.5867L12.3014 31.1718C12.4627 31.4734 12.372 31.8557 12.0776 32.0492C11.7703 32.2513 11.3554 32.1573 11.1457 31.8557L10.7804 31.3294C10.5759 31.0355 10.6235 30.6258 10.905 30.404C11.205 30.1677 11.6328 30.229 11.8574 30.5262L12.8623 29.3906C12.8958 29.3527 12.9014 29.2979 12.8768 29.2539C12.4643 28.5103 12.1821 27.6845 12.0607 26.8074C12.0538 26.7582 12.0179 26.7183 11.9699 26.7074L10.3642 26.3364L10.3626 26.5247C10.361 26.7131 10.2836 26.8836 10.159 27.0066C10.0348 27.13 9.86379 27.2058 9.67507 27.2058C9.30005 27.2058 8.9964 26.8998 9.00003 26.5247L9.01052 25.3582C9.01374 24.9767 9.32908 24.6553 9.71015 24.6654C10.0799 24.6751 10.3751 24.9791 10.3731 25.3501L11.9671 24.9763C12.0155 24.965 12.0514 24.9251 12.0579 24.8759C12.1829 23.9484 12.4881 23.0778 12.9369 22.3003C12.9619 22.2568 12.9575 22.2023 12.9248 22.1636L12.1647 21.2708L12.0986 21.3579C11.8937 21.6289 11.5026 21.6761 11.2385 21.4563C10.9909 21.2499 10.9606 20.8797 11.155 20.6228L11.6615 19.9534C11.7792 19.7982 11.9578 19.7163 12.1389 19.7163C12.2643 19.7163 12.3909 19.7558 12.499 19.8373C12.7494 20.0264 12.8083 20.374 12.643 20.6345L13.7059 21.0942C13.7527 21.1144 13.8067 21.1023 13.8414 21.0648C14.3431 20.5148 14.9306 20.0446 15.583 19.6748C15.6258 19.6502 15.6496 19.6022 15.6423 19.5534L15.3975 17.9239L15.1653 18.0134C14.833 18.1412 14.4584 17.9666 14.3451 17.6247C14.2386 17.3041 14.4168 16.9577 14.7318 16.8367L15.9165 16.3811C16.2492 16.2532 16.6234 16.4274 16.7367 16.7698C16.8432 17.09 16.6654 17.4364 16.35 17.5577L16.3182 17.5698L17.2505 18.9143C17.2787 18.955 17.3287 18.9735 17.3767 18.9619C17.9178 18.8292 18.4828 18.759 19.0647 18.759H19.0655C19.1163 18.759 19.1619 18.728 19.1788 18.68L19.4877 17.8162C19.13 17.7041 18.8917 17.3513 18.9372 16.9666C18.9893 16.5307 19.4066 16.221 19.8425 16.2758L20.2668 16.3291C20.699 16.3835 21.0232 16.7706 20.9761 17.2041C20.939 17.5416 20.6962 17.8045 20.3881 17.8852L20.4954 18.8215C20.501 18.8719 20.5385 18.9131 20.5885 18.9239C21.3055 19.0816 21.9818 19.3482 22.5987 19.705C22.6419 19.7296 22.6951 19.726 22.7334 19.6946L24.0129 18.6562L23.8186 18.5017C23.5391 18.28 23.4996 17.8691 23.7367 17.5977C23.9585 17.3432 24.3476 17.3206 24.6117 17.5307L25.6057 18.3199C25.8852 18.5413 25.9247 18.9526 25.6876 19.224C25.4658 19.478 25.0767 19.5006 24.8126 19.2909L24.7855 19.2695L24.1004 20.7571C24.0795 20.8019 24.0891 20.8547 24.1238 20.8902C24.6061 21.3842 25.0166 21.9487 25.3384 22.5665C25.3618 22.6112 25.4106 22.6366 25.4606 22.6298L26.432 22.4939C26.2892 22.0955 26.5009 21.6539 26.9082 21.5205C27.2966 21.393 27.7151 21.6088 27.8579 21.9919L28.0817 22.5919C28.2228 22.9713 28.0534 23.4056 27.6825 23.5669C27.3268 23.7214 26.9256 23.5819 26.7344 23.2665L25.9283 23.8133C25.886 23.8419 25.867 23.8944 25.8808 23.9436C26.0465 24.5444 26.1352 25.1767 26.1352 25.83C26.1352 25.9392 26.1328 26.0477 26.1275 26.1554C26.1255 26.205 26.1534 26.2505 26.1985 26.2703L27.7099 26.9304L27.7575 26.6865C27.8244 26.3465 28.1539 26.1251 28.4934 26.1917Z" fill="#F07281"/>
<path d="M22.135 23.1835C22.6863 23.1835 23.1333 22.8098 23.1333 22.3488C23.1333 21.8879 22.6863 21.5142 22.135 21.5142C21.5837 21.5142 21.1367 21.8879 21.1367 22.3488C21.1367 22.8098 21.5837 23.1835 22.135 23.1835Z" fill="#EE6161"/>
<path d="M18.5324 28.6379C19.1351 28.6379 19.6236 28.1493 19.6236 27.5467C19.6236 26.9441 19.1351 26.4556 18.5324 26.4556C17.9298 26.4556 17.4413 26.9441 17.4413 27.5467C17.4413 28.1493 17.9298 28.6379 18.5324 28.6379Z" fill="#EE6161"/>
<path d="M22.785 27.7595C23.2165 27.7595 23.5663 27.4097 23.5663 26.9783C23.5663 26.5468 23.2165 26.197 22.785 26.197C22.3536 26.197 22.0038 26.5468 22.0038 26.9783C22.0038 27.4097 22.3536 27.7595 22.785 27.7595Z" fill="#F9B1B1"/>
<path d="M19.8998 31.5504C20.3193 31.5504 20.6594 31.2103 20.6594 30.7908C20.6594 30.3713 20.3193 30.0312 19.8998 30.0312C19.4803 30.0312 19.1403 30.3713 19.1403 30.7908C19.1403 31.2103 19.4803 31.5504 19.8998 31.5504Z" fill="#F9B1B1"/>
<path d="M15.1471 29.7651C15.5841 29.7651 15.9383 29.4109 15.9383 28.9739C15.9383 28.5369 15.5841 28.1826 15.1471 28.1826C14.7101 28.1826 14.3558 28.5369 14.3558 28.9739C14.3558 29.4109 14.7101 29.7651 15.1471 29.7651Z" fill="#EE6161"/>
<path d="M21.003 25.4913H20.7357C20.5686 25.4913 20.4332 25.3559 20.4332 25.1889C20.4332 25.0219 20.5686 24.8865 20.7357 24.8865H21.003C21.1701 24.8865 21.3055 25.0219 21.3055 25.1889C21.3055 25.3559 21.1701 25.4913 21.003 25.4913Z" fill="#F9B1B1"/>
<path d="M17.4413 30.778H17.1666C16.9995 30.778 16.8641 30.6426 16.8641 30.4755C16.8641 30.3085 16.9995 30.1731 17.1666 30.1731H17.4413C17.6083 30.1731 17.7437 30.3085 17.7437 30.4755C17.7437 30.6426 17.6083 30.778 17.4413 30.778Z" fill="#F9B1B1"/>
<path d="M14.6203 26.3734H14.3557C14.1886 26.3734 14.0532 26.238 14.0532 26.071C14.0532 25.904 14.1886 25.7686 14.3557 25.7686H14.6203C14.7873 25.7686 14.9227 25.904 14.9227 26.071C14.9227 26.238 14.7873 26.3734 14.6203 26.3734Z" fill="#EE6161"/>
<path d="M19.9918 21.0822H19.6236C19.4565 21.0822 19.3212 20.9468 19.3212 20.7797C19.3212 20.6127 19.4565 20.4773 19.6236 20.4773H19.9918C20.1589 20.4773 20.2943 20.6127 20.2943 20.7797C20.2943 20.9468 20.1589 21.0822 19.9918 21.0822Z" fill="#F9B1B1"/>
<path d="M22.4104 29.7933H22.0037C21.8367 29.7933 21.7013 29.6579 21.7013 29.4909C21.7013 29.3239 21.8367 29.1885 22.0037 29.1885H22.4104C22.5774 29.1885 22.7128 29.3239 22.7128 29.4909C22.7128 29.6579 22.5774 29.7933 22.4104 29.7933Z" fill="#EE6161"/>
<path d="M17.7976 24.547C18.7006 23.8349 18.9506 22.6463 18.3559 21.8921C17.7612 21.1379 16.5471 21.1038 15.644 21.8159C14.741 22.528 14.491 23.7166 15.0857 24.4708C15.6804 25.225 16.8946 25.2591 17.7976 24.547Z" fill="#EE6161"/>
</g>
<defs>
<clipPath id="clip0_445_4539">
<rect width="10" height="10" fill="white" transform="translate(27.929 13.071) rotate(-45)"/>
</clipPath>
<clipPath id="clip1_445_4539">
<rect width="30" height="30" fill="white" transform="translate(25 28.071)"/>
</clipPath>
<clipPath id="clip2_445_4539">
<rect width="20" height="20" fill="white" transform="translate(9 16.071)"/>
</clipPath>
</defs>
</svg>
