<svg width="28" height="28" viewBox="0 0 28 28" fill="none" xmlns="http://www.w3.org/2000/svg">
<rect width="28" height="28" rx="10" fill="#0C84F3"/>
<path d="M13.5002 20.1574C9.82151 14.8777 9.13867 14.3359 9.13867 12.3955C9.13867 9.73763 11.3151 7.58301 13.9998 7.58301C16.6845 7.58301 18.8609 9.73763 18.8609 12.3955C18.8609 14.3359 18.1781 14.8777 14.4994 20.1574C14.258 20.5027 13.7416 20.5026 13.5002 20.1574ZM13.9998 14.4007C15.1184 14.4007 16.0252 13.503 16.0252 12.3955C16.0252 11.2881 15.1184 10.3903 13.9998 10.3903C12.8811 10.3903 11.9743 11.2881 11.9743 12.3955C11.9743 13.503 12.8811 14.4007 13.9998 14.4007Z" fill="white"/>
</svg>
